<svg xmlns="http://www.w3.org/2000/svg" viewBox="0 0 600 360" role="img">
<defs>
<linearGradient id="bg2" x1="0" y1="0" x2="1" y2="1">
<stop offset="0" stop-color="#dfeaf7"/><stop offset="1" stop-color="#89aede"/>
</linearGradient>
<radialGradient id="lite2" cx="0.28" cy="0.22" r="0.9">
<stop offset="0" stop-color="#ffffff" stop-opacity="0.55"/>
<stop offset="0.6" stop-color="#ffffff" stop-opacity="0"/>
</radialGradient>
</defs>
<rect width="600" height="360" fill="url(#bg2)"/>
<rect width="600" height="360" fill="url(#lite2)"/>
<ellipse cx="300" cy="298" rx="150" ry="24" fill="#000000" opacity="0.14"/>
<g><path d="M180 120 L192 110 L192 250 L180 262 Z" fill="rgba(0,0,0,0.22)" opacity="0.5"/><path d="M206 120 L218 110 L218 250 L206 262 Z" fill="#274a7a" opacity="1"/><path d="M232 120 L244 110 L244 250 L232 262 Z" fill="rgba(0,0,0,0.22)" opacity="0.5"/><path d="M258 120 L270 110 L270 250 L258 262 Z" fill="#274a7a" opacity="1"/><path d="M284 120 L296 110 L296 250 L284 262 Z" fill="rgba(0,0,0,0.22)" opacity="0.5"/><path d="M310 120 L322 110 L322 250 L310 262 Z" fill="#274a7a" opacity="1"/><path d="M336 120 L348 110 L348 250 L336 262 Z" fill="rgba(0,0,0,0.22)" opacity="0.5"/><path d="M362 120 L374 110 L374 250 L362 262 Z" fill="#274a7a" opacity="1"/><path d="M388 120 L400 110 L400 250 L388 262 Z" fill="rgba(0,0,0,0.22)" opacity="0.5"/><path d="M180 120 L400 120 L412 110 L192 110 Z" fill="rgba(255,255,255,0.5)"/></g>
</svg>