<svg xmlns="http://www.w3.org/2000/svg" viewBox="0 0 600 360" role="img">
<defs>
<linearGradient id="bg3" x1="0" y1="0" x2="1" y2="1">
<stop offset="0" stop-color="#e8ecf1"/><stop offset="1" stop-color="#9aa6b4"/>
</linearGradient>
<radialGradient id="lite3" cx="0.28" cy="0.22" r="0.9">
<stop offset="0" stop-color="#ffffff" stop-opacity="0.55"/>
<stop offset="0.6" stop-color="#ffffff" stop-opacity="0"/>
</radialGradient>
</defs>
<rect width="600" height="360" fill="url(#bg3)"/>
<rect width="600" height="360" fill="url(#lite3)"/>
<ellipse cx="300" cy="298" rx="150" ry="24" fill="#000000" opacity="0.14"/>
<g><rect x="200" y="110" width="16" height="180" rx="8" fill="#3a4655"/><rect x="200" y="110" width="5" height="180" fill="rgba(255,255,255,0.5)" opacity="0.5"/><rect x="198" y="124" width="20" height="5" rx="2" fill="rgba(0,0,0,0.22)"/><rect x="198" y="152" width="20" height="5" rx="2" fill="rgba(0,0,0,0.22)"/><rect x="198" y="180" width="20" height="5" rx="2" fill="rgba(0,0,0,0.22)"/><rect x="198" y="208" width="20" height="5" rx="2" fill="rgba(0,0,0,0.22)"/><rect x="198" y="236" width="20" height="5" rx="2" fill="rgba(0,0,0,0.22)"/><rect x="198" y="264" width="20" height="5" rx="2" fill="rgba(0,0,0,0.22)"/><rect x="234" y="110" width="16" height="180" rx="8" fill="#3a4655"/><rect x="234" y="110" width="5" height="180" fill="rgba(255,255,255,0.5)" opacity="0.5"/><rect x="232" y="124" width="20" height="5" rx="2" fill="rgba(0,0,0,0.22)"/><rect x="232" y="152" width="20" height="5" rx="2" fill="rgba(0,0,0,0.22)"/><rect x="232" y="180" width="20" height="5" rx="2" fill="rgba(0,0,0,0.22)"/><rect x="232" y="208" width="20" height="5" rx="2" fill="rgba(0,0,0,0.22)"/><rect x="232" y="236" width="20" height="5" rx="2" fill="rgba(0,0,0,0.22)"/><rect x="232" y="264" width="20" height="5" rx="2" fill="rgba(0,0,0,0.22)"/><rect x="268" y="110" width="16" height="180" rx="8" fill="#3a4655"/><rect x="268" y="110" width="5" height="180" fill="rgba(255,255,255,0.5)" opacity="0.5"/><rect x="266" y="124" width="20" height="5" rx="2" fill="rgba(0,0,0,0.22)"/><rect x="266" y="152" width="20" height="5" rx="2" fill="rgba(0,0,0,0.22)"/><rect x="266" y="180" width="20" height="5" rx="2" fill="rgba(0,0,0,0.22)"/><rect x="266" y="208" width="20" height="5" rx="2" fill="rgba(0,0,0,0.22)"/><rect x="266" y="236" width="20" height="5" rx="2" fill="rgba(0,0,0,0.22)"/><rect x="266" y="264" width="20" height="5" rx="2" fill="rgba(0,0,0,0.22)"/><rect x="302" y="110" width="16" height="180" rx="8" fill="#3a4655"/><rect x="302" y="110" width="5" height="180" fill="rgba(255,255,255,0.5)" opacity="0.5"/><rect x="300" y="124" width="20" height="5" rx="2" fill="rgba(0,0,0,0.22)"/><rect x="300" y="152" width="20" height="5" rx="2" fill="rgba(0,0,0,0.22)"/><rect x="300" y="180" width="20" height="5" rx="2" fill="rgba(0,0,0,0.22)"/><rect x="300" y="208" width="20" height="5" rx="2" fill="rgba(0,0,0,0.22)"/><rect x="300" y="236" width="20" height="5" rx="2" fill="rgba(0,0,0,0.22)"/><rect x="300" y="264" width="20" height="5" rx="2" fill="rgba(0,0,0,0.22)"/><rect x="336" y="110" width="16" height="180" rx="8" fill="#3a4655"/><rect x="336" y="110" width="5" height="180" fill="rgba(255,255,255,0.5)" opacity="0.5"/><rect x="334" y="124" width="20" height="5" rx="2" fill="rgba(0,0,0,0.22)"/><rect x="334" y="152" width="20" height="5" rx="2" fill="rgba(0,0,0,0.22)"/><rect x="334" y="180" width="20" height="5" rx="2" fill="rgba(0,0,0,0.22)"/><rect x="334" y="208" width="20" height="5" rx="2" fill="rgba(0,0,0,0.22)"/><rect x="334" y="236" width="20" height="5" rx="2" fill="rgba(0,0,0,0.22)"/><rect x="334" y="264" width="20" height="5" rx="2" fill="rgba(0,0,0,0.22)"/><rect x="370" y="110" width="16" height="180" rx="8" fill="#3a4655"/><rect x="370" y="110" width="5" height="180" fill="rgba(255,255,255,0.5)" opacity="0.5"/><rect x="368" y="124" width="20" height="5" rx="2" fill="rgba(0,0,0,0.22)"/><rect x="368" y="152" width="20" height="5" rx="2" fill="rgba(0,0,0,0.22)"/><rect x="368" y="180" width="20" height="5" rx="2" fill="rgba(0,0,0,0.22)"/><rect x="368" y="208" width="20" height="5" rx="2" fill="rgba(0,0,0,0.22)"/><rect x="368" y="236" width="20" height="5" rx="2" fill="rgba(0,0,0,0.22)"/><rect x="368" y="264" width="20" height="5" rx="2" fill="rgba(0,0,0,0.22)"/></g>
</svg>